<?xml version="1.0" encoding="UTF-8"?>
<!-- Generated by Pixelmator Pro 2.4.1 -->
<svg width="640" height="512" viewBox="0 0 640 512" xmlns="http://www.w3.org/2000/svg" xmlns:xlink="http://www.w3.org/1999/xlink">
    <path id="Trazado" fill="#fffc67" stroke="none" d="M 160 320 C 213.020004 320 256 277.019989 256 224 C 256 170.97998 213.020004 128 160 128 C 106.099998 128 64 170.100006 64 224 C 64 277 106.099998 320 160 320 Z M 192 352 L 128 352 C 57.310001 352 0 409.309998 0 480 C 0 497.670013 14.33 512 32 512 L 288 512 C 305.670013 512 320 497.670013 320 480 C 320 409.299988 262.700012 352 192 352 Z M 224 64 L 224 113.809998 C 262.100006 136 288 176.799988 288 224 C 288 265.809998 267.859985 302.100006 236.759995 326.399994 C 255.300003 331.799988 272.200012 340.700012 287.299988 352 L 383.98999 352 L 383.98999 304 C 383.98999 295.161987 391.153992 288 399.98999 288 L 495.98999 288 C 504.825989 288 511.98999 295.161987 511.98999 304 L 511.98999 352 L 575.98999 352 L 575.98999 64 L 224 64 Z"/>
    <path id="path1" fill="#ffffff" stroke="none" opacity="0.4" d="M 592 0 L 208 0 C 181.5 0 160 22.25 160 49.630005 L 160 96 C 183.419998 96 205.100006 102.781006 223.100006 113.809998 L 223.100006 64 L 575.099976 64 L 575.099976 352 L 287.299988 352 C 309.369995 368.480011 326.839996 390.5 338.059998 416 L 591.960022 416 C 618.5 416 640 393.799988 640 366.399994 L 640 49.630005 C 640 22.25 618.5 0 592 0 Z"/>
</svg>
