<?xml version="1.0" encoding="UTF-8"?>
<svg width="384px" height="512px" viewBox="0 0 384 512" xmlns="http://www.w3.org/2000/svg" xmlns:xlink="http://www.w3.org/1999/xlink" version="1.1">
 <!-- Generated by Pixelmator Pro 2.0.8 -->
 <g id="check-copia">
  <path id="Trazado" d="M360 0 L24 0 C17.63 -0.016 11.516 2.507 7.012 7.012 2.507 11.516 -0.016 17.63 -0 24 L-0 488 C-0.016 494.37 2.507 500.484 7.012 504.988 11.516 509.493 17.63 512.016 24 512 L360 512 C366.37 512.016 372.484 509.493 376.988 504.988 381.493 500.484 384.016 494.37 384 488 L384 24 C384.016 17.63 381.493 11.516 376.988 7.012 372.484 2.508 366.37 -0.016 360 0 Z M161.7 202.4 L174.3 215.1 C175.309 216.107 175.876 217.474 175.876 218.9 175.876 220.326 175.309 221.693 174.3 222.7 L110.1 286.3 C109.093 287.309 107.726 287.876 106.3 287.876 104.874 287.876 103.507 287.309 102.5 286.3 L65.6 249 C64.591 247.993 64.024 246.626 64.024 245.2 64.024 243.774 64.591 242.407 65.6 241.4 L78.3 228.8 C79.307 227.791 80.674 227.224 82.1 227.224 83.526 227.224 84.893 227.791 85.9 228.8 L106.5 249.6 154.1 202.4 C155.107 201.391 156.474 200.824 157.9 200.824 159.326 200.824 160.693 201.391 161.7 202.4 Z M64 112 C64 107.757 65.686 103.687 68.686 100.686 71.687 97.686 75.757 96 80 96 L112 96 C116.243 96 120.313 97.686 123.314 100.686 126.314 103.687 128 107.757 128 112 L128 144 C128 148.243 126.314 152.313 123.314 155.314 120.313 158.314 116.243 160 112 160 L80 160 C75.757 160 71.687 158.314 68.686 155.314 65.686 152.313 64 148.243 64 144 Z M128 400 C128 404.243 126.314 408.313 123.314 411.314 120.313 414.314 116.243 416 112 416 L80 416 C75.757 416 71.687 414.314 68.686 411.314 65.686 408.313 64 404.243 64 400 L64 368 C64 363.757 65.686 359.687 68.686 356.686 71.687 353.686 75.757 352 80 352 L112 352 C116.243 352 120.313 353.686 123.314 356.686 126.314 359.687 128 363.757 128 368 Z M320 392 C320 394.122 319.157 396.157 317.657 397.657 316.157 399.157 314.122 400 312 400 L168 400 C165.878 400 163.843 399.157 162.343 397.657 160.843 396.157 160 394.122 160 392 L160 376 C160 373.878 160.843 371.843 162.343 370.343 163.843 368.843 165.878 368 168 368 L312 368 C314.122 368 316.157 368.843 317.657 370.343 319.157 371.843 320 373.878 320 376 Z M310.4 272 L170.2 272 C170.2 272 199.4 241.8 200.6 240 L310.3 240 C315.6 240 319.9 243.6 319.9 248 L319.9 264 320 264 C320 268.4 315.7 272 310.4 272 Z M320 136 C320 138.122 319.157 140.157 317.657 141.657 316.157 143.157 314.122 144 312 144 L168 144 C165.878 144 163.843 143.157 162.343 141.657 160.843 140.157 160 138.122 160 136 L160 120 C160 117.878 160.843 115.843 162.343 114.343 163.843 112.843 165.878 112 168 112 L312 112 C314.122 112 316.157 112.843 317.657 114.343 319.157 115.843 320 117.878 320 120 Z" fill="#fa6a05" fill-opacity="0.564" stroke="none"/>
  <path id="Trazado-1" d="M80 160 L112 160 C116.243 160 120.313 158.314 123.314 155.314 126.314 152.313 128 148.243 128 144 L128 112 C128 107.757 126.314 103.687 123.314 100.686 120.313 97.686 116.243 96 112 96 L80 96 C75.757 96 71.687 97.686 68.686 100.686 65.686 103.687 64 107.757 64 112 L64 144 C64 148.243 65.686 152.313 68.686 155.314 71.687 158.314 75.757 160 80 160 Z M174.3 215.1 L161.7 202.4 C160.693 201.391 159.326 200.824 157.9 200.824 156.474 200.824 155.107 201.391 154.1 202.4 L106.5 249.6 85.9 228.8 C84.893 227.791 83.526 227.224 82.1 227.224 80.674 227.224 79.307 227.791 78.3 228.8 L65.6 241.4 C64.591 242.407 64.024 243.774 64.024 245.2 64.024 246.626 64.591 247.993 65.6 249 L102.5 286.3 C103.507 287.309 104.874 287.876 106.3 287.876 107.726 287.876 109.093 287.309 110.1 286.3 L174.3 222.7 C175.309 221.693 175.876 220.326 175.876 218.9 175.876 217.474 175.309 216.107 174.3 215.1 Z M112 352 L80 352 C75.757 352 71.687 353.686 68.686 356.686 65.686 359.687 64 363.757 64 368 L64 400 C64 404.243 65.686 408.313 68.686 411.314 71.687 414.314 75.757 416 80 416 L112 416 C116.243 416 120.313 414.314 123.314 411.314 126.314 408.313 128 404.243 128 400 L128 368 C128 363.757 126.314 359.687 123.314 356.686 120.313 353.686 116.243 352 112 352 Z" fill="#fa6a05" fill-opacity="1" stroke="none"/>
 </g>
</svg>
