<?xml version="1.0" encoding="UTF-8"?>
<svg width="384px" height="512px" viewBox="0 0 384 512" xmlns="http://www.w3.org/2000/svg" xmlns:xlink="http://www.w3.org/1999/xlink" version="1.1">
 <!-- Generated by Pixelmator Pro 2.0.8 -->
 <g id="file-alt-copia">
  <path id="Trazado" d="M384 128 L272 128 C267.757 128 263.687 126.314 260.686 123.314 257.686 120.313 256 116.243 256 112 L256 0 24 0 C17.651 -0.016 11.555 2.491 7.054 6.969 2.553 11.448 0.016 17.531 0 23.88 L0 488 C-0.016 494.35 2.491 500.445 6.97 504.946 11.448 509.447 17.531 511.984 23.88 512 L360 512 C366.349 512.016 372.445 509.509 376.946 505.031 381.447 500.552 383.984 494.469 384 488.12 Z M288 372 C288 375.183 286.736 378.235 284.485 380.485 282.235 382.736 279.183 384 276 384 L108 384 C104.817 384 101.765 382.736 99.515 380.485 97.264 378.235 96 375.183 96 372 L96 364 C96 360.817 97.264 357.765 99.515 355.515 101.765 353.264 104.817 352 108 352 L276 352 C279.183 352 282.235 353.264 284.485 355.515 286.736 357.765 288 360.817 288 364 Z M288 308 C288 311.183 286.736 314.235 284.485 316.485 282.235 318.736 279.183 320 276 320 L108 320 C104.817 320 101.765 318.736 99.515 316.485 97.264 314.235 96 311.183 96 308 L96 300 C96 296.817 97.264 293.765 99.515 291.515 101.765 289.264 104.817 288 108 288 L276 288 C279.183 288 282.235 289.264 284.485 291.515 286.736 293.765 288 296.817 288 300 Z M288 244 C288 247.183 286.736 250.235 284.485 252.485 282.235 254.736 279.183 256 276 256 L108 256 C104.817 256 101.765 254.736 99.515 252.485 97.264 250.235 96 247.183 96 244 L96 236 C96 232.817 97.264 229.765 99.515 227.515 101.765 225.264 104.817 224 108 224 L276 224 C279.183 224 282.235 225.264 284.485 227.515 286.736 229.765 288 232.817 288 236 Z" fill="#fa6a05" fill-opacity="0.564" stroke="none"/>
  <path id="Trazado-1" d="M377 105 L279.1 7 C274.587 2.503 268.471 -0.016 262.1 0 L256 0 256 112 C256 116.243 257.686 120.313 260.686 123.314 263.687 126.314 267.757 128 272 128 L384 128 384 121.9 C384 115.561 381.482 109.482 377 105 Z M276 352 L108 352 C104.817 352 101.765 353.264 99.515 355.515 97.264 357.765 96 360.817 96 364 L96 372 C96 375.183 97.264 378.235 99.515 380.485 101.765 382.736 104.817 384 108 384 L276 384 C279.183 384 282.235 382.736 284.485 380.485 286.736 378.235 288 375.183 288 372 L288 364 C288 360.817 286.736 357.765 284.485 355.515 282.235 353.264 279.183 352 276 352 Z M276 288 L108 288 C104.817 288 101.765 289.264 99.515 291.515 97.264 293.765 96 296.817 96 300 L96 308 C96 311.183 97.264 314.235 99.515 316.485 101.765 318.736 104.817 320 108 320 L276 320 C279.183 320 282.235 318.736 284.485 316.485 286.736 314.235 288 311.183 288 308 L288 300 C288 296.817 286.736 293.765 284.485 291.515 282.235 289.264 279.183 288 276 288 Z M276 224 L108 224 C104.817 224 101.765 225.264 99.515 227.515 97.264 229.765 96 232.817 96 236 L96 244 C96 247.183 97.264 250.235 99.515 252.485 101.765 254.736 104.817 256 108 256 L276 256 C279.183 256 282.235 254.736 284.485 252.485 286.736 250.235 288 247.183 288 244 L288 236 C288 232.817 286.736 229.765 284.485 227.515 282.235 225.264 279.183 224 276 224 Z" fill="#fa6a05" fill-opacity="1" stroke="none"/>
 </g>
</svg>
