<?xml version="1.0" encoding="UTF-8"?>
<svg width="577px" height="513px" viewBox="0 0 577 513" xmlns="http://www.w3.org/2000/svg" xmlns:xlink="http://www.w3.org/1999/xlink" version="1.1">
 <!-- Generated by Pixelmator Pro 2.0.8 -->
 <g id="home-lg">
  <path id="Trazado" d="M496 512 L368 512 C363.757 512 359.687 510.314 356.686 507.314 353.686 504.313 352 500.243 352 496 L352 368 C352 363.757 350.314 359.687 347.314 356.686 344.313 353.686 340.243 352 336 352 L240 352 C235.757 352 231.687 353.686 228.686 356.686 225.686 359.687 224 363.757 224 368 L224 496 C224 500.243 222.314 504.313 219.314 507.314 216.313 510.314 212.243 512 208 512 L80 512 C75.757 512 71.687 510.314 68.686 507.314 65.686 504.313 64 500.243 64 496 L64 311 C65.78 309.79 67.85 309.11 69.47 307.65 L288 115 506.74 307.9 C508.28 309.28 510.3 309.9 512 311.1 L512 496 C512 500.243 510.314 504.313 507.314 507.314 504.313 510.314 500.243 512 496 512 Z" fill="#fa6a05" fill-opacity="0.497" stroke="none"/>
  <path id="Trazado-1" d="M527.92 283.88 L298.6 81.61 C292.552 76.274 283.478 76.274 277.43 81.61 L48.11 283.89 C41.537 289.792 31.425 289.25 25.52 282.68 L4.1 258.89 C-1.802 252.317 -1.26 242.205 5.31 236.3 L261.31 10.3 C276.485 -3.42 299.585 -3.42 314.76 10.3 L416 99.67 416 48 C416 43.757 417.686 39.687 420.686 36.686 423.687 33.686 427.756 32 432 32 L496 32 C500.243 32 504.313 33.686 507.314 36.686 510.314 39.687 512 43.757 512 48 L512 184.43 570.69 236.26 C577.263 242.162 577.809 252.274 571.91 258.85 L550.51 282.67 C544.605 289.24 534.493 289.782 527.92 283.88 Z" fill="#fa6a05" fill-opacity="1" stroke="none"/>
 </g>
</svg>
