<?xml version="1.0" encoding="UTF-8"?>
<svg width="640px" height="512px" viewBox="0 0 640 512" xmlns="http://www.w3.org/2000/svg" xmlns:xlink="http://www.w3.org/1999/xlink" version="1.1">
 <!-- Generated by Pixelmator Pro 2.0.8 -->
 <g id="laptop_code-copia">
  <path id="Trazado" d="M528 0 L112 0 C85.522 0.077 64.077 21.522 64 48 L64 384 576 384 576 48 C575.924 21.523 554.479 0.077 528.001 0 Z M512 320 L128 320 128 64 512 64 Z" fill="#fa6a05" fill-opacity="0.461" stroke="none"/>
  <path id="Trazado-1" d="M624 416 L381.54 416 C380.8 435.81 366.83 448 348.8 448 L288 448 C269.31 448 255 430.53 255.23 416 L16 416 C11.757 416 7.687 417.686 4.686 420.686 1.686 423.687 -0 427.757 -0 432 L-0 448 C0.103 483.301 28.695 511.895 63.998 512 L576 512 C611.303 511.896 639.896 483.303 640 448 L640 432 C640 427.757 638.314 423.687 635.314 420.686 632.313 417.686 628.243 416 624 416 Z M512 64 L128 64 128 320 512 320 Z M289 250.34 L277.69 261.65 C274.689 264.651 270.619 266.338 266.375 266.338 262.131 266.338 258.061 264.651 255.06 261.65 L196.71 203.31 C193.709 200.309 192.022 196.239 192.022 191.995 192.022 187.751 193.709 183.681 196.71 180.68 L255 122.34 C258.001 119.339 262.071 117.652 266.315 117.652 270.559 117.652 274.629 119.339 277.63 122.34 L289 133.65 C292.001 136.651 293.688 140.721 293.688 144.965 293.688 149.209 292.001 153.279 289 156.28 L253.25 192 289 227.71 C292.001 230.711 293.688 234.781 293.688 239.025 293.688 243.269 292.001 247.339 289 250.34 Z M443.35 203.34 L385 261.66 C381.999 264.661 377.929 266.348 373.685 266.348 369.441 266.348 365.371 264.661 362.37 261.66 L351 250.35 C347.999 247.349 346.312 243.279 346.312 239.035 346.312 234.791 347.999 230.721 351 227.72 L386.75 192 351 156.29 C347.999 153.289 346.312 149.219 346.312 144.975 346.312 140.731 347.999 136.661 351 133.66 L362.31 122.35 C365.311 119.349 369.381 117.662 373.625 117.662 377.869 117.662 381.939 119.349 384.94 122.35 L443.28 180.69 C446.287 183.685 447.98 187.753 447.988 191.997 447.995 196.241 446.316 200.314 443.32 203.32 Z" fill="#fa6a05" fill-opacity="1" stroke="none"/>
 </g>
</svg>
