<?xml version="1.0" encoding="UTF-8"?>
<svg width="640px" height="512px" viewBox="0 0 640 512" xmlns="http://www.w3.org/2000/svg" xmlns:xlink="http://www.w3.org/1999/xlink" version="1.1">
 <!-- Generated by Pixelmator Pro 2.0.8 -->
 <g id="lsptop">
  <path id="Trazado" d="M528 0 L112 0 C85.522 0.077 64.077 21.522 64 48 L64 384 576 384 576 48 C575.924 21.523 554.479 0.077 528.001 0 Z M512 320 L128 320 128 64 512 64 Z" fill="#fa6a05" fill-opacity="1" stroke="none"/>
  <path id="Trazado-1" d="M512 64 L128 64 128 320 512 320 Z M624 416 L381.54 416 C380.8 435.81 366.83 448 348.8 448 L288 448 C269.31 448 255 430.53 255.23 416 L16 416 C11.757 416 7.687 417.686 4.686 420.686 1.686 423.687 -0 427.757 -0 432 L-0 448 C0.103 483.301 28.695 511.895 63.998 512 L576 512 C611.303 511.896 639.896 483.303 640 448 L640 432 C640 427.757 638.314 423.687 635.314 420.686 632.313 417.686 628.243 416 624 416 Z" fill="#fa6a05" fill-opacity="0.386" stroke="none"/>
 </g>
</svg>
