<?xml version="1.0" encoding="UTF-8"?>
<svg width="496px" height="496px" viewBox="0 0 496 496" xmlns="http://www.w3.org/2000/svg" xmlns:xlink="http://www.w3.org/1999/xlink" version="1.1">
 <!-- Generated by Pixelmator Pro 2.0.8 -->
 <g id="play-copia">
  <path id="Trazado" d="M248 0 C111 0 0 111 0 248 0 385 111 496 248 496 385 496 496 385 496 248 496 111 385 0 248 0 Z M363.7 272 L187.7 373 C171.9 381.8 152 370.5 152 352 L152 144 C152 125.6 171.8 114.2 187.7 123 L363.7 230 C380.1 239.2 380.1 262.9 363.7 272 Z" fill="#fa6a05" fill-opacity="0.564" stroke="none"/>
  <path id="Trazado-1" d="M363.7 272 L187.7 373 C171.9 381.8 152 370.5 152 352 L152 144 C152 125.6 171.8 114.2 187.7 123 L363.7 230 C380.1 239.2 380.1 262.9 363.7 272 Z" fill="#fa6a05" fill-opacity="1" stroke="none"/>
 </g>
</svg>
