<?xml version="1.0" encoding="UTF-8"?>
<svg width="640px" height="449px" viewBox="0 0 640 449" xmlns="http://www.w3.org/2000/svg" xmlns:xlink="http://www.w3.org/1999/xlink" version="1.1">
 <!-- Generated by Pixelmator Pro 2.0.8 -->
 <g id="product-copia">
  <path id="Trazado" d="M439 223.14 L576 184 576 362 C575.959 376.647 566 389.406 551.8 393 L335.4 447.1 C325.218 449.6 314.582 449.6 304.4 447.1 L88.24 393 C73.99 389.475 63.985 376.68 64 362 L64 184 201 223.2 C205.316 224.481 209.798 225.121 214.3 225.1 231.288 225.051 247.02 216.143 255.8 201.6 L320 95 384.3 201.6 C393.062 216.099 408.759 224.971 425.7 225 430.2 225.034 434.682 224.407 439 223.14 Z" fill="#fa6a05" fill-opacity="0.564" stroke="none"/>
  <path id="Trazado-1" d="M638.34 112.84 L586.84 10 C583.735 3.782 577.034 0.21 570.14 1.1 L320 33 411.7 185.1 C415.529 191.41 423.094 194.396 430.2 192.4 L628.1 135.9 C632.778 134.553 636.62 131.206 638.596 126.757 640.571 122.308 640.478 117.213 638.34 112.84 Z M53.24 10 L1.74 112.84 C-0.443 117.18 -0.575 122.268 1.378 126.717 3.332 131.165 7.167 134.51 11.84 135.84 L209.74 192.34 C216.846 194.336 224.411 191.35 228.24 185.04 L320 33 69.84 1.14 C62.991 0.291 56.347 3.837 53.24 10 Z" fill="#fa6a05" fill-opacity="1" stroke="none"/>
 </g>
</svg>
