<?xml version="1.0" encoding="UTF-8"?>
<!-- Generated by Pixelmator Pro 2.4.1 -->
<svg width="448" height="512" viewBox="0 0 448 512" xmlns="http://www.w3.org/2000/svg" xmlns:xlink="http://www.w3.org/1999/xlink">
    <path id="Trazado" fill="#fa6906" stroke="none" d="M 94.120003 315.100006 C 94.120003 341 72.959999 362.160004 47.060001 362.160004 C 21.16 362.160004 0 341 0 315.100006 C 0 289.200012 21.16 268.040009 47.060001 268.040009 L 94.120003 268.040009 L 94.120003 315.100006 Z M 117.839996 315.100006 C 117.839996 289.200012 139 268.040009 164.899994 268.040009 C 190.800003 268.040009 211.960007 289.200012 211.960007 315.100006 L 211.960007 432.940002 C 211.960007 458.839996 190.800003 480 164.899994 480 C 139 480 117.839996 458.839996 117.839996 432.940002 L 117.839996 315.100006 Z M 164.899994 126.119995 C 139 126.119995 117.839996 104.959991 117.839996 79.059998 C 117.839996 53.160004 139 32 164.899994 32 C 190.800003 32 211.960007 53.160004 211.960007 79.059998 L 211.960007 126.119995 L 164.899994 126.119995 Z M 164.899994 149.839996 C 190.800003 149.839996 211.960007 171 211.960007 196.899994 C 211.960007 222.799988 190.800003 243.960022 164.899994 243.960022 L 47.060001 243.960022 C 21.16 243.960022 0 222.799988 0 196.899994 C 0 171 21.16 149.839996 47.060001 149.839996 L 164.899994 149.839996 Z M 353.880005 196.899994 C 353.880005 171 375.040009 149.839996 400.940002 149.839996 C 426.839996 149.839996 448 171 448 196.899994 C 448 222.799988 426.839996 243.960022 400.940002 243.960022 L 353.880005 243.960022 L 353.880005 196.899994 Z M 330.160004 196.899994 C 330.160004 222.799988 309 243.960022 283.100006 243.960022 C 257.200012 243.960022 236.039993 222.799988 236.039993 196.899994 L 236.039993 79.059998 C 236.039993 53.160004 257.200012 32 283.100006 32 C 309 32 330.160004 53.160004 330.160004 79.059998 L 330.160004 196.899994 Z M 283.100006 385.880005 C 309 385.880005 330.160004 407.040009 330.160004 432.940002 C 330.160004 458.839996 309 480 283.100006 480 C 257.200012 480 236.039993 458.839996 236.039993 432.940002 L 236.039993 385.880005 L 283.100006 385.880005 Z M 283.100006 362.160004 C 257.200012 362.160004 236.039993 341 236.039993 315.100006 C 236.039993 289.200012 257.200012 268.040009 283.100006 268.040009 L 400.940002 268.040009 C 426.839996 268.040009 448 289.200012 448 315.100006 C 448 341 426.839996 362.160004 400.940002 362.160004 L 283.100006 362.160004 Z"/>
</svg>
