<?xml version="1.0" encoding="UTF-8"?>
<!-- Generated by Pixelmator Pro 2.4.1 -->
<svg width="512" height="512" viewBox="0 0 512 512" xmlns="http://www.w3.org/2000/svg" xmlns:xlink="http://www.w3.org/1999/xlink">
    <path id="Trazado" fill="#fa6906" stroke="none" d="M 159 159 C 168.399994 149.700012 183.600006 149.700012 192.100006 159 L 272.100006 239 C 282.299988 248.399994 282.299988 263.600006 272.100006 272.100006 C 263.600006 282.299988 248.399994 282.299988 239 272.100006 L 159 192.100006 C 149.699997 183.600006 149.699997 168.399994 159 159 L 159 159 Z"/>
    <path id="path1" fill="#fa6906" stroke="none" opacity="0.4" d="M 224 32 C 224 14.329987 238.300003 0 256 0 C 397.399994 0 512 114.600006 512 256 C 512 397.399994 397.399994 512 256 512 C 114.599998 512 0 397.399994 0 256 C 0 184.399994 29.459999 119.600006 76.839996 73.140015 C 89.459999 60.779999 109.699997 60.980011 122.099998 73.600006 C 134.5 86.230011 134.300003 106.5 121.599998 118.899994 C 86.029999 153.700012 64 202.299988 64 256 C 64 362 149.100006 448 256 448 C 362 448 448 362 448 256 C 448 160.899994 378.799988 81.890015 288 66.649994 L 288 96 C 288 113.700012 273.700012 128 256 128 C 238.300003 128 224 113.700012 224 96 L 224 32 Z"/>
</svg>
