<?xml version="1.0" encoding="UTF-8"?>
<!-- Generated by Pixelmator Pro 2.4.1 -->
<svg width="512" height="512" viewBox="0 0 512 512" xmlns="http://www.w3.org/2000/svg" xmlns:xlink="http://www.w3.org/1999/xlink">
    <path id="Trazado" fill="#fffc67" stroke="none" d="M 359.200012 312.799988 L 256 416 L 152.800003 312.799988 C 82.870003 335.100006 32 400 32 477.299988 C 32 496.5 47.529999 512 66.669998 512 L 445.369995 512 C 464.5 512 480 496.5 480 477.299988 C 480 400 429.100006 335.100006 359.200012 312.799988 Z M 45.630001 79.75 L 52 81.25 L 52 139.75 C 45 143.899994 40 151.299988 40 160 C 40 168.375 44.625 175.380005 51.119999 179.75 L 35.5 242 C 33.75 248.899994 37.630001 256 43.130001 256 L 84.879997 256 C 90.379997 256 94.254997 248.875 92.504997 242.899994 L 76.879997 179.799988 C 83.379997 175.399994 88 168.399994 88 160 C 88 151.25 83 143.880005 76 139.75 L 76 87.130005 L 128 99.630005 L 128.001007 160 L 383.101013 160 L 384 99.619995 L 466.25 79.75 C 484.5 75.375 484.5 52.75 466.25 48.25 L 275.850006 2.25 C 262.850006 -0.75 249.229996 -0.75 236.220001 2.25 L 45.619999 48.25 C 27.5 52.630005 27.5 75.380005 45.630001 79.75 Z"/>
    <path id="path1" fill="#ffffff" stroke="none" opacity="0.4" d="M 384 159.100006 C 384 229.850006 326.75 287.100006 256.899994 287.100006 C 187.050003 287.100006 128 230.700012 128 159.100006 L 384 159.100006 Z"/>
</svg>
