<?xml version="1.0" encoding="UTF-8"?>
<svg width="448px" height="512px" viewBox="0 0 448 512" xmlns="http://www.w3.org/2000/svg" xmlns:xlink="http://www.w3.org/1999/xlink" version="1.1">
 <!-- Generated by Pixelmator Pro 2.0.8 -->
 <g id="camera-home">
  <path id="Trazado" d="M224 96 L223.95 96 C162.098 96.014 111.967 146.163 111.975 208.015 111.983 269.867 162.129 320.003 223.981 320 285.833 319.997 335.973 269.856 335.975 208.004 335.977 146.152 285.841 96.008 223.989 96 Z M224 176 C215.513 176 207.374 179.371 201.373 185.373 195.371 191.374 192 199.513 192 208 192 216.837 184.837 224 176 224 167.163 224 160 216.837 160 208 160.032 172.669 188.666 144.034 223.999 144 232.837 144 240 151.163 240 160 240 168.837 232.837 176 224 176 Z" fill="#fa6a05" fill-opacity="0.478" stroke="none"/>
  <path id="Trazado-1" d="M384 0 L64 0 C47.026 0 30.747 6.743 18.745 18.745 6.743 30.747 -0 47.026 0 64 L0 352 C0 368.974 6.743 385.253 18.745 397.255 30.748 409.257 47.026 416 64 416 L136.71 416 76.53 450.83 C69.63 455.16 64.03 465.28 64.03 473.43 L64.03 485.33 C64.035 500.056 75.972 511.994 90.699 512 L357.37 512 C372.082 511.972 383.995 500.042 384 485.33 L384 473.45 C384 465.28 378.35 455.15 371.42 450.83 L311.28 416 384 416 C400.974 416 417.253 409.257 429.255 397.255 441.257 385.252 448 368.974 448 352 L448 64 C448 47.026 441.257 30.747 429.255 18.745 417.253 6.743 400.974 -0 384 0 Z M224 352 L223.95 352 C144.426 351.986 79.968 287.512 79.975 207.987 79.982 128.463 144.451 64 223.975 64 303.499 64 367.968 128.464 367.975 207.988 367.982 287.512 303.524 351.986 224 352 Z" fill="#fa6a05" fill-opacity="1" stroke="none"/>
 </g>
</svg>
