<?xml version="1.0" encoding="UTF-8"?>
<!-- Generated by Pixelmator Pro 2.4.3 -->
<svg width="597" height="566" viewBox="0 0 597 566" xmlns="http://www.w3.org/2000/svg" xmlns:xlink="http://www.w3.org/1999/xlink">
    <path id="seed-copia" fill="#fa6a04" fill-rule="evenodd" stroke="none" d="M 482.757813 565.773438 C 479.374627 565.766994 475.962943 565.610351 472.529297 565.298828 C 409.744238 559.606422 363.462971 504.087383 369.160156 441.302734 C 371.906279 411.023978 383.504051 386.725478 403.367188 369.109375 C 405.049816 367.616193 440.035624 435.32372 468.052734 444.740234 C 493.910441 453.428652 512.952217 403.887177 514.712891 402.685547 C 516.330902 401.573536 491.797335 401.999698 468.253906 390.550781 C 444.708625 379.10074 422.151864 355.775597 423.939453 354.810547 C 443.023174 344.484045 469.926407 335.843444 493.158203 337.951172 C 555.942836 343.648388 602.221786 399.14498 596.525391 461.931641 C 591.140517 521.284653 541.238595 565.884812 482.757813 565.773438 Z M 146.759766 498.335938 C 66.463641 497.848448 1.261188 432.89597 0.730469 352.365234 C 0.195571 271.200413 65.55782 204.970438 146.722656 204.435547 C 227.887477 203.900626 294.119406 269.262898 294.654297 350.427734 C 294.912249 389.568572 283.083481 422.151444 259.830078 447.207031 C 257.859029 449.329135 200.38166 355.15519 163.306641 346.585938 C 129.086986 338.675266 115.065869 416.314932 112.960938 418.078125 C 111.023815 419.701253 142.408543 416.09385 174.005859 427.828125 C 205.605651 439.562385 237.420909 466.634809 235.251953 468.095703 C 212.085208 483.709373 178.690045 498.136077 148.660156 498.333984 C 148.026056 498.338163 147.392019 498.339776 146.759766 498.335938 Z M 370.701172 226.267578 C 342.670904 226.267578 317.029326 216.044634 297.302734 199.121094 C 273.191112 178.437063 257.919922 147.746761 257.919922 113.488281 C 257.919922 51.199595 308.414308 0.707031 370.701172 0.707031 C 432.989859 0.707031 483.482422 51.199595 483.482422 113.488281 C 483.482422 175.775145 432.989859 226.267578 370.701172 226.267578 Z"/>
</svg>
